<mxfile host="app.diagrams.net" modified="2020-11-18T07:18:24.253Z" agent="5.0 (Windows NT 10.0; Win64; x64) AppleWebKit/537.36 (KHTML, like Gecko) Chrome/86.0.4240.198 Safari/537.36" etag="Du3WCmjixwakuCzymcEV" version="13.9.9" type="github">
  <diagram id="RPLMbTd_8OytdTSrsAQz" name="Page-1">
    <mxGraphModel dx="1019" dy="519" grid="1" gridSize="10" guides="1" tooltips="1" connect="1" arrows="1" fold="1" page="1" pageScale="1" pageWidth="850" pageHeight="1100" math="0" shadow="0">
      <root>
        <mxCell id="0" />
        <mxCell id="1" parent="0" />
        <mxCell id="biGSlmb96AjWtifXSgdu-3" value="Thông tin cá nhân" style="edgeStyle=orthogonalEdgeStyle;rounded=0;orthogonalLoop=1;jettySize=auto;html=1;" parent="1" source="biGSlmb96AjWtifXSgdu-1" target="biGSlmb96AjWtifXSgdu-2" edge="1">
          <mxGeometry relative="1" as="geometry" />
        </mxCell>
        <mxCell id="biGSlmb96AjWtifXSgdu-1" value="Bệnh nhân" style="rounded=0;whiteSpace=wrap;html=1;" parent="1" vertex="1">
          <mxGeometry x="80" y="120" width="110" height="30" as="geometry" />
        </mxCell>
        <mxCell id="biGSlmb96AjWtifXSgdu-5" value="Thông tin cá nhân&lt;br&gt;" style="edgeStyle=orthogonalEdgeStyle;rounded=0;orthogonalLoop=1;jettySize=auto;html=1;" parent="1" source="biGSlmb96AjWtifXSgdu-2" target="biGSlmb96AjWtifXSgdu-4" edge="1">
          <mxGeometry relative="1" as="geometry" />
        </mxCell>
        <mxCell id="biGSlmb96AjWtifXSgdu-26" style="edgeStyle=orthogonalEdgeStyle;rounded=0;orthogonalLoop=1;jettySize=auto;html=1;exitX=0;exitY=1;exitDx=0;exitDy=0;entryX=0;entryY=0;entryDx=0;entryDy=0;" parent="1" source="biGSlmb96AjWtifXSgdu-2" target="biGSlmb96AjWtifXSgdu-14" edge="1">
          <mxGeometry relative="1" as="geometry" />
        </mxCell>
        <mxCell id="biGSlmb96AjWtifXSgdu-2" value="Tra cứu hồ sơ bệnh nhân" style="ellipse;whiteSpace=wrap;html=1;" parent="1" vertex="1">
          <mxGeometry x="440" y="95" width="160" height="80" as="geometry" />
        </mxCell>
        <mxCell id="biGSlmb96AjWtifXSgdu-9" style="edgeStyle=orthogonalEdgeStyle;rounded=0;orthogonalLoop=1;jettySize=auto;html=1;entryX=0.5;entryY=1;entryDx=0;entryDy=0;" parent="1" source="biGSlmb96AjWtifXSgdu-4" target="biGSlmb96AjWtifXSgdu-6" edge="1">
          <mxGeometry relative="1" as="geometry">
            <Array as="points">
              <mxPoint x="760" y="250" />
            </Array>
          </mxGeometry>
        </mxCell>
        <mxCell id="biGSlmb96AjWtifXSgdu-4" value="Lập hồ sơ bệnh nhân" style="ellipse;whiteSpace=wrap;html=1;" parent="1" vertex="1">
          <mxGeometry x="570" y="220" width="170" height="80" as="geometry" />
        </mxCell>
        <mxCell id="biGSlmb96AjWtifXSgdu-7" style="edgeStyle=orthogonalEdgeStyle;rounded=0;orthogonalLoop=1;jettySize=auto;html=1;entryX=1;entryY=0.5;entryDx=0;entryDy=0;" parent="1" source="biGSlmb96AjWtifXSgdu-6" target="biGSlmb96AjWtifXSgdu-2" edge="1">
          <mxGeometry relative="1" as="geometry" />
        </mxCell>
        <mxCell id="biGSlmb96AjWtifXSgdu-6" value="Hồ sơ bệnh nhân" style="shape=partialRectangle;whiteSpace=wrap;html=1;left=0;right=0;fillColor=none;" parent="1" vertex="1">
          <mxGeometry x="700" y="117.5" width="120" height="35" as="geometry" />
        </mxCell>
        <mxCell id="biGSlmb96AjWtifXSgdu-20" value="Hồ sơ bệnh nhân" style="edgeStyle=orthogonalEdgeStyle;rounded=0;orthogonalLoop=1;jettySize=auto;html=1;exitX=0;exitY=1;exitDx=0;exitDy=0;entryX=0;entryY=0;entryDx=0;entryDy=0;" parent="1" source="biGSlmb96AjWtifXSgdu-14" target="biGSlmb96AjWtifXSgdu-19" edge="1">
          <mxGeometry y="47" relative="1" as="geometry">
            <mxPoint as="offset" />
          </mxGeometry>
        </mxCell>
        <mxCell id="biGSlmb96AjWtifXSgdu-14" value="Chuyển tiếp bệnh nhân" style="ellipse;whiteSpace=wrap;html=1;" parent="1" vertex="1">
          <mxGeometry x="330" y="240" width="160" height="90" as="geometry" />
        </mxCell>
        <mxCell id="biGSlmb96AjWtifXSgdu-19" value="Thông báo đến khoa liên quan" style="ellipse;whiteSpace=wrap;html=1;" parent="1" vertex="1">
          <mxGeometry x="330" y="410" width="160" height="90" as="geometry" />
        </mxCell>
      </root>
    </mxGraphModel>
  </diagram>
</mxfile>
